HIERARCHY
ROOT root
{
	OFFSET 0.000000 0.000000 0.000000
	CHANNELS 6 Xposition Yposition Zposition Zrotation Yrotation Xrotation
	JOINT lhip
	{
		OFFSET 0.058581 -0.082280 -0.017664
		CHANNELS 3 Zrotation Yrotation Xrotation
		JOINT lknee
		{
			OFFSET 0.043451 -0.386469 0.008037
			CHANNELS 3 Zrotation Yrotation Xrotation
			JOINT lankle
			{
				OFFSET -0.014790 -0.426874 -0.037428
				CHANNELS 3 Zrotation Yrotation Xrotation
				JOINT ltoe
				{
					OFFSET 0.041054 -0.060286 0.122042
					CHANNELS 3 Zrotation Yrotation Xrotation
					End Site
					{
						OFFSET 0.000000 0.000000 0.000000
					}
				}
			}
		}
	}
	JOINT rhip
	{
		OFFSET -0.060310 -0.090513 -0.013543
		CHANNELS 3 Zrotation Yrotation Xrotation
		JOINT rknee
		{
			OFFSET -0.043257 -0.383688 -0.004843
			CHANNELS 3 Zrotation Yrotation Xrotation
			JOINT rankle
			{
				OFFSET 0.019056 -0.420046 -0.034562
				CHANNELS 3 Zrotation Yrotation Xrotation
				JOINT rtoe
				{
					OFFSET -0.034840 -0.062106 0.130323
					CHANNELS 3 Zrotation Yrotation Xrotation
					End Site
					{
						OFFSET 0.000000 0.000000 0.000000
					}
				}
			}
		}
	}
	JOINT lowerback
	{
		OFFSET 0.004439 0.124404 -0.038385
		CHANNELS 3 Zrotation Yrotation Xrotation
		JOINT upperback
		{
			OFFSET 0.004488 0.137956 0.026820
			CHANNELS 3 Zrotation Yrotation Xrotation
			JOINT chest
			{
				OFFSET -0.002265 0.056032 0.002855
				CHANNELS 3 Zrotation Yrotation Xrotation
				JOINT lowerneck
				{
					OFFSET -0.013390 0.211636 -0.033468
					CHANNELS 3 Zrotation Yrotation Xrotation
					JOINT upperneck
					{
						OFFSET 0.010113 0.088937 0.050410
						CHANNELS 3 Zrotation Yrotation Xrotation
						End Site
						{
							OFFSET 0.000000 0.000000 0.000000
						}
					}
				}
				JOINT lclavicle
				{
					OFFSET 0.071702 0.114000 -0.018898
					CHANNELS 3 Zrotation Yrotation Xrotation
					JOINT lshoulder
					{
						OFFSET 0.122921 0.045205 -0.019046
						CHANNELS 3 Zrotation Yrotation Xrotation
						JOINT lelbow
						{
							OFFSET 0.255332 -0.015649 -0.022946
							CHANNELS 3 Zrotation Yrotation Xrotation
							JOINT lwrist
							{
								OFFSET 0.265709 0.012698 -0.007375
								CHANNELS 3 Zrotation Yrotation Xrotation
								End Site
								{
									OFFSET 0.000000 0.000000 0.000000
								}
							}
						}
					}
				}
				JOINT rclavicle
				{
					OFFSET -0.082954 0.112472 -0.023707
					CHANNELS 3 Zrotation Yrotation Xrotation
					JOINT rshoulder
					{
						OFFSET -0.113228 0.046853 -0.008472
						CHANNELS 3 Zrotation Yrotation Xrotation
						JOINT relbow
						{
							OFFSET -0.260127 -0.014369 -0.031269
							CHANNELS 3 Zrotation Yrotation Xrotation
							JOINT rwrist
							{
								OFFSET -0.269108 0.006794 -0.006027
								CHANNELS 3 Zrotation Yrotation Xrotation
								End Site
								{
									OFFSET 0.000000 0.000000 0.000000
								}
							}
						}
					}
				}
			}
		}
	}
}
MOTION
Frames: 9
Frame Time: 0.033333
2.325528 0.647681 0.996327 -87.746697 -0.900354 82.285947 -3.754921 -0.415565 4.497170 0.727659 -10.412485 3.130031 1.917899 10.863011 -9.591368 0.000000 -0.000000 0.000000 2.943044 -2.495434 4.179631 -4.416907 -0.959243 5.893827 0.719881 -12.499764 -12.378399 0.000000 -0.000000 0.000000 -2.002665 1.870629 6.723701 -0.986831 -2.228653 3.510464 -1.758214 1.222109 -2.143193 0.792429 -5.281568 -1.693755 5.349089 -4.024598 2.764181 -26.534695 -3.468033 -1.450662 -53.271986 -6.648395 14.753482 5.272601 -21.547563 3.328968 -5.686872 -2.074536 4.057359 23.844133 8.697236 0.300684 58.144433 0.299545 21.704920 1.415454 26.086072 14.284027 5.955690 4.000961 4.335416 
2.325620 0.647916 0.996391 -87.802037 -0.906103 82.231084 -3.739725 -0.451667 4.531479 0.745990 -10.291185 3.141852 1.807007 10.970574 -9.533433 0.000000 -0.000000 0.000000 3.023954 -2.320010 4.255888 -4.503428 -0.882007 5.902053 0.635563 -12.614676 -12.390657 0.000000 -0.000000 0.000000 -1.999663 1.849713 6.695066 -0.997486 -2.172415 3.669387 -1.733267 1.240164 -2.207305 0.808933 -5.283183 -1.603334 5.323976 -3.956238 2.652279 -26.303220 -3.437348 -1.385655 -53.522812 -6.613305 14.956165 5.213419 -21.686650 3.929974 -6.223654 -2.289803 4.027722 23.674035 8.659317 0.194169 58.325457 0.238993 21.833880 1.256132 26.124285 14.457844 6.200364 3.901967 3.960017 
2.325722 0.648075 0.996291 -87.809996 -0.965084 82.155337 -3.796125 -0.465963 4.622669 0.754195 -10.328321 3.136766 1.756181 10.914208 -9.431580 0.000000 -0.000000 0.000000 2.967676 -2.269296 4.383990 -4.472843 -0.851590 5.782805 0.682868 -12.539451 -12.278912 0.000000 -0.000000 0.000000 -1.970381 1.908440 6.614957 -1.046343 -2.148710 3.950665 -1.737537 1.123043 -2.232889 0.848172 -5.141190 -1.463150 5.370225 -3.937480 2.542817 -26.260487 -3.509865 -1.313282 -53.490254 -6.780234 14.707460 5.022261 -21.720646 3.671575 -6.909879 -2.128373 3.782198 23.650307 8.700979 0.138462 58.413936 0.369804 21.812380 1.160740 25.868492 14.470671 6.511427 3.794072 4.279943 
2.326008 0.648243 0.995834 -87.865006 -1.012009 82.190107 -3.799058 -0.494363 4.521644 0.691769 -10.242142 3.193383 1.733982 10.903250 -9.410514 0.000000 -0.000000 0.000000 2.934646 -2.234854 4.258662 -4.503191 -0.944723 5.894640 0.516650 -12.654582 -12.368727 0.000000 -0.000000 0.000000 -1.925589 1.868000 6.575173 -1.055830 -2.196429 3.918876 -1.741111 1.233908 -2.195013 0.774192 -4.879219 -1.496936 5.339609 -3.844445 2.910267 -26.132995 -3.510964 -1.357712 -53.696981 -6.841340 14.705891 4.990557 -21.641699 3.568598 -6.826108 -2.089314 3.593589 23.626271 8.774874 0.274032 58.376792 0.482872 21.848984 1.038246 25.927514 14.393541 6.566262 3.827753 4.125788 
2.326071 0.648369 0.995797 -87.956630 -1.067904 82.118467 -3.834362 -0.453332 4.649582 0.706343 -10.224471 3.115834 1.798022 10.920010 -9.442992 0.000000 -0.000000 0.000000 2.911551 -2.148622 4.364790 -4.523177 -0.859036 5.835116 0.719904 -12.464923 -12.179522 0.000000 -0.000000 0.000000 -1.931976 1.854047 6.607997 -1.101843 -2.184539 3.897849 -1.737114 1.247609 -2.160442 0.775043 -4.761508 -1.367609 5.275763 -3.677804 3.086836 -26.141397 -3.623583 -1.179128 -53.674506 -6.887683 14.623070 5.049555 -21.652577 3.444637 -6.761752 -1.934670 3.365009 23.628587 8.767169 0.467926 58.405895 0.760315 21.794382 1.001990 25.935573 14.277018 6.611606 3.712324 3.889739 
2.326302 0.648428 0.995672 -88.062714 -1.124095 82.114751 -3.894231 -0.424305 4.645767 0.723963 -10.182805 3.121085 1.788848 10.955726 -9.418921 0.000000 -0.000000 0.000000 2.842526 -2.105454 4.327238 -4.513172 -0.868249 5.874773 0.741792 -12.617196 -12.301685 0.000000 -0.000000 0.000000 -1.922582 1.821734 6.623544 -1.097417 -2.126272 3.818530 -1.765341 1.318723 -2.112092 0.888846 -4.860549 -1.334632 5.232781 -3.609871 3.458272 -26.219086 -3.499425 -1.181216 -53.675474 -7.037215 14.717447 5.008209 -21.647315 3.774919 -6.585721 -1.926395 3.545297 23.599602 8.667766 0.375012 58.451515 0.822408 21.902404 0.997123 25.940686 14.343439 6.445945 3.681391 3.825226 
2.326405 0.648383 0.995730 -88.037637 -1.110106 82.064478 -3.903559 -0.454069 4.675191 0.717260 -10.258790 3.164059 1.847517 10.990721 -9.520255 0.000000 -0.000000 0.000000 2.848639 -2.156288 4.412306 -4.528379 -0.817322 5.821481 0.774819 -12.577135 -12.399987 0.000000 -0.000000 0.000000 -1.849227 1.737063 6.653569 -1.077400 -2.207841 3.894879 -1.796274 1.333971 -2.194191 0.888626 -4.827808 -1.305493 5.081902 -3.397683 3.909034 -26.333354 -3.500146 -1.182715 -53.542531 -7.001427 14.783915 5.007905 -21.657595 3.745015 -6.048513 -1.878292 3.595891 23.644377 8.659468 0.280634 58.418317 0.838234 21.980815 1.047413 25.910201 14.333746 6.130484 3.721265 4.022550 
2.326795 0.648788 0.995716 -88.122837 -1.007189 82.108193 -3.687750 -0.444587 4.537735 0.630122 -10.029906 3.267733 1.791976 10.897108 -9.529045 0.000000 -0.000000 0.000000 2.954103 -2.255775 4.274565 -4.430856 -0.789782 5.888577 0.806001 -12.420232 -12.557365 0.000000 -0.000000 0.000000 -1.799714 1.765660 6.565046 -1.016339 -2.205547 3.853943 -1.723363 1.294888 -2.144890 1.011882 -4.438367 -1.279990 5.046156 -3.175509 4.519579 -26.334222 -3.477372 -1.096425 -53.618283 -7.044400 14.752353 5.024157 -21.692912 3.966936 -5.988752 -2.168580 3.521836 23.700336 8.618588 0.416015 58.349624 1.027122 22.016771 1.074841 26.017503 14.476350 6.038048 3.815739 4.036800 
2.326652 0.648741 0.995696 -88.122742 -1.007998 82.026742 -3.698185 -0.408082 4.697272 0.620167 -10.159772 3.200550 1.962436 11.002049 -9.600188 0.000000 -0.000000 0.000000 2.945904 -2.286295 4.419699 -4.461644 -0.797803 5.811335 0.799270 -12.421688 -12.667660 0.000000 -0.000000 0.000000 -1.750235 1.671450 6.626485 -1.025445 -2.249835 3.924274 -1.708410 1.291952 -2.272384 1.015137 -4.268839 -1.033876 4.922893 -2.786379 4.860211 -26.320901 -3.394081 -1.027074 -53.630657 -6.991146 14.729357 4.873616 -21.719248 4.362493 -5.898817 -2.100749 3.644492 23.619488 8.524654 0.486458 58.367071 1.090396 22.038107 1.238385 26.194214 14.709411 6.053356 3.820680 3.985769 
